<svg version="1.2" xmlns="http://www.w3.org/2000/svg" viewBox="0 0 960 960" width="960" height="960"><style>.a{fill:#fff}</style><path fill-rule="evenodd" d="m810 790h-200q0-20-1.5-40-1.5-20-4.5-40h206v-480h-640v46q-20-3-40-4.5-20-1.5-40-1.5v-40q0-33 23.5-56.5 23.5-23.5 56.5-23.5h640q33 0 56.5 23.5 23.5 23.5 23.5 56.5v480q0 33-23.5 56.5-23.5 23.5-56.5 23.5zm-360 0q0-75-28.5-140.5-28.5-65.5-77-114-48.5-48.5-114-77-65.5-28.5-140.5-28.5v-80q91 0 171 34.5 80 34.5 140 94.5 60 60 94.5 140 34.5 80 34.5 171zm-160 0q0-83-58.5-141.5-58.5-58.5-141.5-58.5v-80q117 0 198.5 81.5 81.5 81.5 81.5 198.5zm-200 0v-120q50 0 85 35 35 35 35 85zm640-160h-145q-7-21-15.5-41.5-8.5-20.5-17.5-38.5h98v-160h-227q-29-25-62.5-45-33.5-20-69.5-35h439z"/><path fill-rule="evenodd" class="a" d="m790 810h-200q0-20-1.5-40-1.5-20-4.5-40h206v-480h-640v46q-20-3-40-4.5-20-1.5-40-1.5v-40q0-33 23.5-56.5 23.5-23.5 56.5-23.5h640q33 0 56.5 23.5 23.5 23.5 23.5 56.5v480q0 33-23.5 56.5-23.5 23.5-56.5 23.5zm-360 0q0-75-28.5-140.5-28.5-65.5-77-114-48.5-48.5-114-77-65.5-28.5-140.5-28.5v-80q91 0 171 34.5 80 34.5 140 94.5 60 60 94.5 140 34.5 80 34.5 171zm-160 0q0-83-58.5-141.5-58.5-58.5-141.5-58.5v-80q117 0 198.5 81.5 81.5 81.5 81.5 198.5zm-200 0v-120q50 0 85 35 35 35 35 85zm640-160h-145q-7-21-15.5-41.5-8.5-20.5-17.5-38.5h98v-160h-227q-29-25-62.5-45-33.5-20-69.5-35h439z"/></svg>