<svg version="1.2" xmlns="http://www.w3.org/2000/svg" viewBox="0 0 2299 1040" width="2299" height="1040">
	<title>logo-svg</title>
	<style>
		.s0 { fill: #00AEEC } 
	</style>
	<path id="Layer" fill-rule="evenodd" class="s0" d="m1775.8 330.6c6.1 1 53.2-9.5 55.2-6 3 4.5 24.1 155.9 18.5 156.9-5.5 1-44.6 10-44.6 10-3-20.5-28.6-147.9-29.1-160.9zm136.4-14.6c0 0 10.5 97.3 16.6 159-4.1 0.5-46.7 3.5-57.2 4l-20.6-163c20.1-4 41.2-4 61.2 0zm-101.8 226.2c0 0 92.8-23.6 126.4-12.1 17 61.7 48.1 407.6 51.1 421.7-21 2.5-90.2 8.5-95.7 10-4.6-26.1-81.8-403.1-81.8-419.6zm343.5-207.6c5.5 1.5 54.6-5 55.1-1.5 1 12 6 157.4 0.5 157.9-5.5 0.5-44.6 4-44.6 4-1-20-12-146.9-11-160.4zm136.8 0c0 0-1 97.3 0 158.9-4.5 0.5-46.6-2-57.1-2l-4-160.9c20.5-1 41.1 0.5 61.1 4zm-125.8 212.1c0 0 94.8-12.6 126.8 2.5 7.1 72.2 6.1 408.6 7.1 422.6-21.6 0-90.3 1-95.8 2-1-26-39.6-410.6-38.1-427.1zm-93.8-419.7c-0.5 15.6 34.6 495.4 63.2 795.7-48.6-3-91.7-4-91.7-4-1.5-30.6-43.1-506.9-97.8-785.7 0 0 114.3-19.5 126.3-6zm-549.5 884.4c-145.3 28.1-230.1 19.1-230.1 19.1-53.1-642.8-126.3-952.6-126.3-952.6 61.1-22.6 174.5-76.7 185-69.2-1.5 23.1-7 162.5-0.5 305.8 7.5 167 27.1 339.5 27.1 339.5 157.4-28.6 437.1 60.1 447.7 138.3 14.5 103.3-157.5 191.1-302.9 219.1zm109.3-192c-16-10-166.9-66.2-172.9-63.2l24.5 177c0 0 145.9-102.7 148.4-113.8zm-1020.2-488.8c6 1 53.1-9.5 55.1-6 3 4.5 24.1 155.9 18.6 156.9-5.5 1-44.7 10-44.7 10-3-20.5-28.5-147.9-29-160.9zm136.3-14.6c0 0 10.1 97.3 16.6 159-4 0.5-46.6 3.5-57.2 4l-20.5-163c20-4 41.1-4 61.1 0zm-101.7 226.2c0 0 92.7-23.6 126.3-12.1 17 61.7 48.1 407.6 51.1 421.7-21 2.5-90.2 8.5-95.7 10-4.5-26.1-81.7-403.1-81.7-419.6zm343.4-207.6c5.5 1.5 54.6-5 55.1-1.5 1 12 6.1 157.4 0.5 157.9-5.5 0.5-44.6 4-44.6 4-1-20-11.5-146.9-11-160.4zm136.9 0c0 0-1 97.3 0 158.9-4.5 0.5-46.7-2-57.2-2l-4-160.9c20.6-0.5 41.1 0.5 61.2 4zm-125.9 212.1c0 0 94.8-12.6 126.9 2.5 7 72.2 6 408.6 7 422.6-21.6 0-90.3 1-95.8 2-0.5-26-39.6-410.6-38.1-427.1zm-93.7-420.2c-0.5 16.1 34.6 495.9 63.1 796.2-48.6-3-91.7-4-91.7-4-1.5-30.6-43.1-506.9-97.8-785.7 0 0 114.3-19.5 126.4-6.5zm-549.5 884.9c-145.4 28.1-230.2 19.1-230.2 19.1-53.1-642.8-126.3-952.6-126.3-952.6 61.2-22.6 174.5-76.2 185-69.2-1.5 23.1-7 162.5-0.5 305.8 7.5 167 27.1 339.5 27.1 339.5 157.4-28.6 437.2 60.1 447.7 138.3 14.5 103.3-157.4 191.1-302.8 219.1zm109.3-192c-16.1-10-167-66.2-173-63.2l24.6 177c0 0 145.9-102.7 148.4-113.8z"/>
</svg>