<svg version="1.2" xmlns="http://www.w3.org/2000/svg" viewBox="0 0 2299 1040" width="2299" height="1040"><style>.a{fill:#ff3070}.b{fill:#ff7ba6}</style><path class="a" d="m256.4 690.7q-44.6 0-89.3-15.6-32.4 12.3-74.9 12.3-9.5 0-17.3-1.2 0-33.5 30.7-165.3 30.7-131.8 30.7-149.1 0-17.4-6.7-30.8-6.1-13.4-12.8-20.1l-6.1-6.1 2.2-14q13.9-2.8 64.2-7.8 50.9-5.6 86-5.6 136.3 0 136.3 87.7 0 40.8-27.9 66.5-27.4 25.7-68.1 34.6 38.5 4.5 64.8 27.9 26.2 22.9 26.2 65.4 0 52.5-39.1 87.1-39.1 34.1-98.9 34.1zm-19-195.5q-10 0-22.3 1.7-21.8 95.5-27.9 138.5 12.3 7.3 33.5 7.3 32.4 0 48.6-26.8 16.2-26.9 16.2-60.4 0-34-12.3-46.9-11.7-13.4-35.8-13.4zm-12.2-40.8h5q24.6 0 38.5-18.4 25.2-31.8 25.2-70.4 0-39.1-26.8-39.1l-18.5 2.2q-0.5 21.8-23.4 125.7zm330.1 20.1q0 24.6-14 76.6-14 51.3-14 67 0 15.6 6.2 15.6 6.1 0 22.3-5.6l5-2.2 10.1 27.9q-19 14.6-47.5 25.7-27.9 11.2-50.8 11.2-22.9 0-36.3-12.8-12.9-12.9-12.9-36.9 0-24.6 13.4-74.3 14-50.3 14-63.7 0-20.6-14.5-39.1l-4.5-6.1 1.7-9.5q29-9 112.8-9 9 10.1 9 35.2zm-41.9-78.7q-25.2 0-39.7-13.4-14-13.4-14-34.1 0-21.2 17.4-35.2 17.8-14.5 43-14.5 25.1 0 39.1 11.7 13.9 11.7 13.9 33 0 21.2-17.3 36.8-16.7 15.7-42.4 15.7zm226.2 256.9q-17.9 15.7-46.9 26.8-29.1 11.2-53.1 11.2-23.5 0-38.6-13.4-15-14-15-39.7 0-25.7 27.9-143 28.5-117.8 28.5-174.8 0-12.3-3.4-31.3 52.5-14.5 101.7-14.5 5 8.9 5 29 0 38-28.5 165.9-27.9 127.4-27.9 147 0 19.5 6.7 19.5 5.6 0 24-7.3l6.2-2.8zm148.7-178.1q0 24.5-14 76.5-14 51.4-14 67 0 15.7 6.2 15.7 6.1 0 22.3-5.6l5-2.3 10.1 28q-19 14.5-47.5 25.7-27.9 11.1-50.8 11.1-22.9 0-36.3-12.8-12.9-12.9-12.9-36.9 0-24.6 13.4-74.3 14-50.2 14-63.7 0-20.6-14.5-39.1l-4.5-6.1 1.7-9.5q29-8.9 112.8-8.9 9 10 9 35.2zm-41.9-78.8q-25.2 0-39.7-13.4-14-13.4-14-34.1 0-21.2 17.4-35.2 17.8-14.5 43-14.5 25.1 0 39.1 11.7 13.9 11.8 13.9 33 0 21.2-17.3 36.9-16.7 15.6-42.4 15.6zm323.8 186q0 46.4-44.7 77.7-44.1 31.2-102.8 31.2-45.8 0-77.6-19.5-31.3-19.6-31.3-37.4 9-21.8 34.1-47 25.1-25.1 46.3-26.2 14 6.1 25.7 30.7 12.3 24 19.6 55.9 30.2-1.2 30.2-34.1 0-21.8-16.8-53.1-16.2-31.8-35.7-59.2-19.6-27.4-36.4-60.9-16.2-33.5-16.2-58.6 0-41.4 38-67.6 38-26.3 84.4-26.3 46.9 0 72.6 20.1 26.2 20.2 26.2 46.4 0 21.8-8.9 35.2-8.9 12.8-14.5 20.1-5 6.7-14 14.5-16.7 14.6-25.7 21.3l-8.4 6.1q33 40.8 49.8 95 6.1 19.5 6.1 35.7zm-29-224q0-26.2-33.6-26.2-19.5 0-31.8 8.3-11.7 8.4-11.7 21.3 0 12.3 10 30.1 10.6 17.9 16.8 25.2 13.4-6.7 31.8-24.6 18.5-17.9 18.5-34.1zm206.3 116.2q-17.3 0-29.6 30.7-12.3 30.7-12.3 62 0 68.7 39.7 68.7 25.1 0 57-24l17.8 24.6q-23.4 25.7-56.4 40.2-32.4 14.5-64.8 14.5-43.6 0-70.9-26.2-26.8-26.8-26.8-80.5 0-64.8 39.6-106.1 40.2-41.3 105-41.3 41.9 0 66 17.3 24 16.8 24 43 0 25.7-15.7 44.7-18.4 0-40.2-6.7-21.2-7.3-34.1-17.9l8.4-41.9q-3.3-1.1-6.7-1.1zm367.8-16.2q-11.7 36.3-20.1 86.6-8.3 49.7-8.3 69.8 0 19.6 6.1 19.6l27.9-7.9 10.1 28q-17.9 13.9-45.8 25.7-27.4 11.1-48.6 11.1-36.3 0-45.8-31.2-44.2 31.2-78.2 31.2-33.5 0-52-24.5-18.4-24.6-18.4-70.4 0-63.1 32.4-111.2 32.4-48 85.5-48 29 0 59.2 16.2 4.4-10.1 7.2-14.5 40.2 0 88.8 19.5zm-168.1 131.3q0 27.9 3.9 35.2 3.9 7.2 14.5 7.2 10.7 0 20.7-8.4 2.2-64.8 21.2-135.7-8.3-5-19.5-5-10.6 0-19.6 12.3-8.3 12.3-12.8 30.7-8.4 35.2-8.4 63.7zm174.7 220.1q-4.5-7.3-4.5-30.8 0-23.4 21.2-127.3 21.8-103.9 21.8-130.2 0-26.2-5-39.6-5-14-10.1-17.9l-5-3.9 1.1-8.4q33.5-10.6 113.4-10.6 4.5 8.4 7.3 21.8 35.7-25.7 67.6-25.7 31.8 0 51.9 24.6 20.7 24 20.7 82.1 0 58.1-30.7 102.7-30.2 44.7-88.9 44.7-25.6 0-50.2-10-12.9 63.1-12.9 111.1-40.2 14.6-97.7 17.4zm135.2-165.4q15 0 25.6-22.3 19-39.1 19-95 0-32.9-16.2-32.9-8.3 0-22.3 6.1-3.4 46.9-22.3 141.3 9.5 2.8 16.2 2.8zm163.1-60.9q0-69.2 41.9-107.8 42.4-38.5 104.4-38.5 43 0 68.7 19 26.3 18.4 26.3 49.7 0 22.9-14 40.8-14 17.8-34.1 27.3-42.4 19-73.7 22.9l-14 1.7q6.2 36.9 36.9 36.9 13.4 0 29.6-5.6 16.2-6.2 25.7-12.3l9.5-5.6 17.9 24q0 0-6.2 6.2-3.3 3.3-16.2 13.4-12.3 9.5-26.2 16.7-13.4 7.3-34.7 13.4-21.2 5.6-42.4 5.6-47.5 0-73.7-27.3-25.7-28-25.7-80.5zm103.3-21.8q16.2-2.2 32.4-26.2 16.2-24.6 16.2-40.8 0-16.7-9.5-16.7-14 0-25.7 21.7-11.7 21.8-13.4 62z"/><path class="b" d="m218.4 645.7q-44.6 0-89.3-15.6-32.4 12.3-74.9 12.3-9.5 0-17.3-1.2 0-33.5 30.7-165.3 30.7-131.8 30.7-149.1 0-17.4-6.7-30.8-6.1-13.4-12.8-20.1l-6.1-6.1 2.2-14q13.9-2.8 64.2-7.8 50.9-5.6 86-5.6 136.3 0 136.3 87.7 0 40.8-27.9 66.5-27.4 25.7-68.1 34.6 38.5 4.5 64.8 27.9 26.2 22.9 26.2 65.4 0 52.5-39.1 87.1-39.1 34.1-98.9 34.1zm-19-195.5q-10 0-22.3 1.7-21.8 95.5-27.9 138.5 12.3 7.3 33.5 7.3 32.4 0 48.6-26.8 16.2-26.9 16.2-60.4 0-34-12.3-46.9-11.7-13.4-35.8-13.4zm-12.2-40.8h5q24.6 0 38.5-18.4 25.2-31.8 25.2-70.4 0-39.1-26.8-39.1l-18.5 2.2q-0.5 21.8-23.4 125.7zm330.1 20.1q0 24.6-14 76.6-14 51.3-14 67 0 15.6 6.2 15.6 6.1 0 22.3-5.6l5-2.2 10.1 27.9q-19 14.6-47.5 25.7-27.9 11.2-50.8 11.2-22.9 0-36.3-12.8-12.9-12.9-12.9-36.9 0-24.6 13.4-74.3 14-50.3 14-63.7 0-20.6-14.5-39.1l-4.5-6.1 1.7-9.5q29-9 112.8-9 9 10.1 9 35.2zm-41.9-78.7q-25.2 0-39.7-13.4-14-13.4-14-34.1 0-21.2 17.4-35.2 17.8-14.5 43-14.5 25.1 0 39.1 11.7 13.9 11.7 13.9 33 0 21.2-17.3 36.8-16.7 15.7-42.4 15.7zm226.2 256.9q-17.9 15.7-46.9 26.8-29.1 11.2-53.1 11.2-23.5 0-38.6-13.4-15-14-15-39.7 0-25.7 27.9-143 28.5-117.8 28.5-174.8 0-12.3-3.4-31.3 52.5-14.5 101.7-14.5 5 8.9 5 29 0 38-28.5 165.9-27.9 127.4-27.9 147 0 19.5 6.7 19.5 5.6 0 24-7.3l6.2-2.8zm148.7-178.1q0 24.5-14 76.5-14 51.4-14 67 0 15.7 6.2 15.7 6.1 0 22.3-5.6l5-2.3 10.1 28q-19 14.5-47.5 25.7-27.9 11.1-50.8 11.1-22.9 0-36.3-12.8-12.9-12.9-12.9-36.9 0-24.6 13.4-74.3 14-50.2 14-63.7 0-20.6-14.5-39.1l-4.5-6.1 1.7-9.5q29-8.9 112.8-8.9 9 10 9 35.2zm-41.9-78.8q-25.2 0-39.7-13.4-14-13.4-14-34.1 0-21.2 17.4-35.2 17.8-14.5 43-14.5 25.1 0 39.1 11.7 13.9 11.8 13.9 33 0 21.2-17.3 36.9-16.7 15.6-42.4 15.6zm323.8 186q0 46.4-44.7 77.7-44.1 31.2-102.8 31.2-45.8 0-77.6-19.5-31.3-19.6-31.3-37.4 9-21.8 34.1-47 25.1-25.1 46.3-26.2 14 6.1 25.7 30.7 12.3 24 19.6 55.9 30.2-1.2 30.2-34.1 0-21.8-16.8-53.1-16.2-31.8-35.7-59.2-19.6-27.4-36.4-60.9-16.2-33.5-16.2-58.6 0-41.4 38-67.6 38-26.3 84.4-26.3 46.9 0 72.6 20.1 26.2 20.2 26.2 46.4 0 21.8-8.9 35.2-8.9 12.8-14.5 20.1-5 6.7-14 14.5-16.7 14.6-25.7 21.3l-8.4 6.1q33 40.8 49.8 95 6.1 19.5 6.1 35.7zm-29-224q0-26.2-33.6-26.2-19.5 0-31.8 8.3-11.7 8.4-11.7 21.3 0 12.3 10 30.1 10.6 17.9 16.8 25.2 13.4-6.7 31.8-24.6 18.5-17.9 18.5-34.1zm206.3 116.2q-17.3 0-29.6 30.7-12.3 30.7-12.3 62 0 68.7 39.7 68.7 25.1 0 57-24l17.8 24.6q-23.4 25.7-56.4 40.2-32.4 14.5-64.8 14.5-43.6 0-70.9-26.2-26.8-26.8-26.8-80.5 0-64.8 39.6-106.1 40.2-41.3 105-41.3 41.9 0 66 17.3 24 16.8 24 43 0 25.7-15.7 44.7-18.4 0-40.2-6.7-21.2-7.3-34.1-17.9l8.4-41.9q-3.3-1.1-6.7-1.1zm367.8-16.2q-11.7 36.3-20.1 86.6-8.3 49.7-8.3 69.8 0 19.6 6.1 19.6l27.9-7.9 10.1 28q-17.9 13.9-45.8 25.7-27.4 11.1-48.6 11.1-36.3 0-45.8-31.2-44.2 31.2-78.2 31.2-33.5 0-52-24.5-18.4-24.6-18.4-70.4 0-63.1 32.4-111.2 32.4-48 85.5-48 29 0 59.2 16.2 4.4-10.1 7.2-14.5 40.2 0 88.8 19.5zm-168.1 131.3q0 27.9 3.9 35.2 3.9 7.2 14.5 7.2 10.7 0 20.7-8.4 2.2-64.8 21.2-135.7-8.3-5-19.5-5-10.6 0-19.6 12.3-8.3 12.3-12.8 30.7-8.4 35.2-8.4 63.7zm174.7 220.1q-4.5-7.3-4.5-30.8 0-23.4 21.2-127.3 21.8-103.9 21.8-130.2 0-26.2-5-39.6-5-14-10.1-17.9l-5-3.9 1.1-8.4q33.5-10.6 113.4-10.6 4.5 8.4 7.3 21.8 35.7-25.7 67.6-25.7 31.8 0 51.9 24.6 20.7 24 20.7 82.1 0 58.1-30.7 102.7-30.2 44.7-88.9 44.7-25.6 0-50.2-10-12.9 63.1-12.9 111.1-40.2 14.6-97.7 17.4zm135.2-165.4q15 0 25.6-22.3 19-39.1 19-95 0-32.9-16.2-32.9-8.3 0-22.3 6.1-3.4 46.9-22.3 141.3 9.5 2.8 16.2 2.8zm163.1-60.9q0-69.2 41.9-107.8 42.4-38.5 104.4-38.5 43 0 68.7 19 26.3 18.4 26.3 49.7 0 22.9-14 40.8-14 17.8-34.1 27.3-42.4 19-73.7 22.9l-14 1.7q6.2 36.9 36.9 36.9 13.4 0 29.6-5.6 16.2-6.2 25.7-12.3l9.5-5.6 17.9 24q0 0-6.2 6.2-3.3 3.3-16.2 13.4-12.3 9.5-26.2 16.7-13.4 7.3-34.7 13.4-21.2 5.6-42.4 5.6-47.5 0-73.7-27.3-25.7-28-25.7-80.5zm103.3-21.8q16.2-2.2 32.4-26.2 16.2-24.6 16.2-40.8 0-16.7-9.5-16.7-14 0-25.7 21.7-11.7 21.8-13.4 62z"/></svg>