<svg version="1.2" xmlns="http://www.w3.org/2000/svg" viewBox="0 0 1040 2299"><style>.a{fill:#fff}</style><path fill-rule="evenodd" class="a" d="m330.6 523.2c1-6.1-9.5-53.2-6-55.2 4.5-3 155.9-24.1 156.9-18.5 1 5.5 10 44.6 10 44.6-20.5 3-147.9 28.6-160.9 29.1zm-14.6-136.4c0 0 97.3-10.5 159-16.6 0.5 4.1 3.5 46.7 4 57.2l-163 20.6c-4-20.1-4-41.2 0-61.2zm226.2 101.8c0 0-23.6-92.8-12.1-126.4 61.7-17 407.6-48.1 421.7-51.1 2.5 21 8.5 90.2 10 95.7-26.1 4.6-403.1 81.8-419.6 81.8zm-207.6-343.5c1.5-5.5-5-54.6-1.5-55.1 12-1 157.4-6 157.9-0.5 0.5 5.5 4 44.6 4 44.6-20 1-146.9 12-160.4 11zm0-136.8c0 0 97.3 1 158.9 0 0.5 4.5-2 46.6-2 57.1l-160.9 4c-1-20.5 0.5-41.1 4-61.1zm212.1 125.8c0 0-12.6-94.8 2.5-126.8 72.2-7.1 408.6-6.1 422.6-7.1 0 21.6 1 90.3 2 95.8-26 1-410.6 39.6-427.1 38.1zm-419.7 93.8c15.6 0.5 495.4-34.6 795.7-63.2-3 48.6-4 91.7-4 91.7-30.6 1.5-506.9 43.1-785.7 97.8 0 0-19.5-114.3-6-126.3zm884.4 549.5c28.1 145.3 19.1 230.1 19.1 230.1-642.8 53.1-952.6 126.3-952.6 126.3-22.6-61.1-76.7-174.5-69.2-185 23.1 1.5 162.5 7 305.8 0.5 167-7.5 339.5-27.1 339.5-27.1-28.6-157.4 60.1-437.1 138.3-447.7 103.3-14.5 191.1 157.5 219.1 302.9zm-192-109.3c-10 16-66.2 166.9-63.2 172.9l177-24.5c0 0-102.7-145.9-113.8-148.4zm-488.8 1020.2c1-6-9.5-53.1-6-55.1 4.5-3 155.9-24.1 156.9-18.6 1 5.5 10 44.7 10 44.7-20.5 3-147.9 28.5-160.9 29zm-14.6-136.3c0 0 97.3-10.1 159-16.6 0.5 4 3.5 46.6 4 57.2l-163 20.5c-4-20-4-41.1 0-61.1zm226.2 101.7c0 0-23.6-92.7-12.1-126.3 61.7-17 407.6-48.1 421.7-51.1 2.5 21 8.5 90.2 10 95.7-26.1 4.5-403.1 81.7-419.6 81.7zm-207.6-343.4c1.5-5.5-5-54.6-1.5-55.1 12-1 157.4-6.1 157.9-0.5 0.5 5.5 4 44.6 4 44.6-20 1-146.9 11.5-160.4 11zm0-136.9c0 0 97.3 1 158.9 0 0.5 4.5-2 46.7-2 57.2l-160.9 4c-0.5-20.6 0.5-41.1 4-61.2zm212.1 125.9c0 0-12.6-94.8 2.5-126.9 72.2-7 408.6-6 422.6-7 0 21.6 1 90.3 2 95.8-26 0.5-410.6 39.6-427.1 38.1zm-420.2 93.7c16.1 0.5 495.9-34.6 796.2-63.1-3 48.6-4 91.7-4 91.7-30.6 1.5-506.9 43.1-785.7 97.8 0 0-19.5-114.3-6.5-126.4zm884.9 549.5c28.1 145.4 19.1 230.2 19.1 230.2-642.8 53.1-952.6 126.3-952.6 126.3-22.6-61.2-76.2-174.5-69.2-185 23.1 1.5 162.5 7 305.8 0.5 167-7.5 339.5-27.1 339.5-27.1-28.6-157.4 60.1-437.2 138.3-447.7 103.3-14.5 191.1 157.4 219.1 302.8zm-192-109.3c-10 16.1-66.2 167-63.2 173l177-24.6c0 0-102.7-145.9-113.8-148.4z"/></svg>